<?xml version="1.0" encoding="UTF-8" standalone="no"?>
<!-- Created with Inkscape (http://www.inkscape.org/) -->

<svg
   width="6mm"
   height="6mm"
   viewBox="0 0 6 6"
   version="1.1"
   id="svg1"
   xml:space="preserve"
   inkscape:version="1.3.2 (091e20e, 2023-11-25, custom)"
   sodipodi:docname="ICONS.svg"
   inkscape:export-filename="Icone\CleanIntersections.svg"
   inkscape:export-xdpi="96"
   inkscape:export-ydpi="96"
   xmlns:inkscape="http://www.inkscape.org/namespaces/inkscape"
   xmlns:sodipodi="http://sodipodi.sourceforge.net/DTD/sodipodi-0.dtd"
   xmlns="http://www.w3.org/2000/svg"
   xmlns:svg="http://www.w3.org/2000/svg"><sodipodi:namedview
     id="namedview1"
     pagecolor="#505050"
     bordercolor="#eeeeee"
     borderopacity="1"
     inkscape:showpageshadow="0"
     inkscape:pageopacity="0"
     inkscape:pagecheckerboard="0"
     inkscape:deskcolor="#505050"
     inkscape:document-units="mm"
     inkscape:zoom="11.588216"
     inkscape:cx="12.555859"
     inkscape:cy="-3.7106661"
     inkscape:window-width="1289"
     inkscape:window-height="961"
     inkscape:window-x="618"
     inkscape:window-y="0"
     inkscape:window-maximized="0"
     inkscape:current-layer="layer1" /><defs
     id="defs1" /><g
     inkscape:label="Layer 1"
     inkscape:groupmode="layer"
     id="layer1"><g
       style="color:#000000;fill:none;stroke-width:1.5"
       id="g24"
       transform="matrix(0.26458333,0,0,0.26458333,-0.18729076,-0.04991526)"><path
         d="M 21,7.35304 V 16.647 c 0,0.2179 -0.1181,0.4186 -0.3086,0.5245 l -8.4,4.6666 c -0.1812,0.1007 -0.4016,0.1007 -0.5828,0 L 3.30861,17.1715 C 3.11814,17.0656 3,16.8649 3,16.647 l -2e-5,-9.29396 c 0,-0.2179 0.11814,-0.41867 0.30862,-0.52449 l 8.4,-4.66667 c 0.1812,-0.10067 0.4016,-0.10067 0.5828,0 l 8.4,4.66667 C 20.8818,6.93437 21,7.13514 21,7.35304 Z"
         stroke="#000000"
         stroke-width="1.5"
         stroke-linecap="round"
         stroke-linejoin="round"
         id="path1-36"
         sodipodi:nodetypes="ssccccssssscs" /><path
         d="m 3.52844,7.29357 8.18016,4.54453 c 0.1812,0.1007 0.4016,0.1007 0.5828,0 L 20.5,7.27777"
         stroke="#000000"
         stroke-width="1.5"
         stroke-linecap="round"
         stroke-linejoin="round"
         id="path2-85" /><path
         d="M 12,21 V 12"
         stroke="#000000"
         stroke-width="1.5"
         stroke-linecap="round"
         stroke-linejoin="round"
         id="path3-2" /></g></g></svg>
