<?xml version="1.0" encoding="UTF-8" standalone="no"?>
<!-- Created with Inkscape (http://www.inkscape.org/) -->

<svg
   width="6mm"
   height="6mm"
   viewBox="0 0 6 6"
   version="1.1"
   id="svg1"
   xml:space="preserve"
   inkscape:version="1.3.2 (091e20e, 2023-11-25, custom)"
   sodipodi:docname="ICONS.svg"
   inkscape:export-filename="Icone\SimplifyLine.svg"
   inkscape:export-xdpi="96"
   inkscape:export-ydpi="96"
   xmlns:inkscape="http://www.inkscape.org/namespaces/inkscape"
   xmlns:sodipodi="http://sodipodi.sourceforge.net/DTD/sodipodi-0.dtd"
   xmlns="http://www.w3.org/2000/svg"
   xmlns:svg="http://www.w3.org/2000/svg"><sodipodi:namedview
     id="namedview1"
     pagecolor="#505050"
     bordercolor="#eeeeee"
     borderopacity="1"
     inkscape:showpageshadow="0"
     inkscape:pageopacity="0"
     inkscape:pagecheckerboard="0"
     inkscape:deskcolor="#505050"
     inkscape:document-units="mm"
     inkscape:zoom="11.588216"
     inkscape:cx="12.555859"
     inkscape:cy="-3.7106661"
     inkscape:window-width="1289"
     inkscape:window-height="961"
     inkscape:window-x="618"
     inkscape:window-y="0"
     inkscape:window-maximized="0"
     inkscape:current-layer="layer1" /><defs
     id="defs1" /><g
     inkscape:label="Layer 1"
     inkscape:groupmode="layer"
     id="layer1"><g
       id="g17"
       transform="matrix(0.93559884,0,0,0.93559884,-60.194837,-135.21684)"><path
         style="color:#000000;fill:none;stroke:#000000;stroke-width:0.245669;stroke-linecap:butt;stroke-linejoin:miter;stroke-dasharray:none;stroke-opacity:1"
         d="m -63.755334,-2.4117898 -3.004384,-4.0031063"
         id="path10-45-7-2-6-9"
         sodipodi:nodetypes="cc"
         transform="matrix(0.26458333,0,0,0.26458333,86.966145,148.76325)" /><path
         style="color:#000000;fill:none;stroke:#000000;stroke-width:0.245669;stroke-linecap:butt;stroke-linejoin:miter;stroke-dasharray:none;stroke-opacity:1"
         d="M -66.270775,0.45290076 -68.787003,-3.4586758"
         id="path10-45-7-2-6-7"
         sodipodi:nodetypes="cc"
         transform="matrix(0.26458333,0,0,0.26458333,86.966145,148.76325)" /><path
         style="color:#000000;fill:none;stroke:#000000;stroke-width:0.245669;stroke-linecap:butt;stroke-linejoin:miter;stroke-dasharray:none;stroke-opacity:1"
         d="m -81.482897,-9.8533892 2.914504,4.0514638"
         id="path10-45-7-2-80"
         sodipodi:nodetypes="cc"
         transform="matrix(0.26458333,0,0,0.26458333,86.966145,148.76325)" /><path
         style="color:#000000;fill:none;stroke:#000000;stroke-width:0.245669;stroke-linecap:butt;stroke-linejoin:miter;stroke-dasharray:none;stroke-opacity:1"
         d="m -83.849387,-6.2765567 3.677248,3.1361723"
         id="path10-45-7-2-1"
         sodipodi:nodetypes="cc"
         transform="matrix(0.26458333,0,0,0.26458333,86.966145,148.76325)" /><path
         style="color:#000000;fill:none;stroke:#000000;stroke-width:0.245669;stroke-linecap:butt;stroke-linejoin:miter;stroke-dasharray:none;stroke-opacity:1"
         d="m -70.486494,-3.6595407 -3.065404,3.07515224"
         id="path10-45-7-2-6"
         sodipodi:nodetypes="cc"
         transform="matrix(0.26458333,0,0,0.26458333,86.966145,148.76325)" /><path
         style="color:#000000;fill:none;stroke:#000000;stroke-width:0.245669;stroke-linecap:butt;stroke-linejoin:miter;stroke-dasharray:none;stroke-opacity:1"
         d="m -71.523453,-6.1071408 -3.736618,2.5869964"
         id="path10-45-7-2-3"
         sodipodi:nodetypes="cc"
         transform="matrix(0.26458333,0,0,0.26458333,86.966145,148.76325)" /><path
         style="color:#000000;fill:none;stroke:#000000;stroke-width:0.245669;stroke-linecap:butt;stroke-linejoin:miter;stroke-dasharray:none;stroke-opacity:1"
         d="m -73.764306,-9.6089387 -2.607758,3.6853465"
         id="path10-45-7-2-8"
         sodipodi:nodetypes="cc"
         transform="matrix(0.26458333,0,0,0.26458333,86.966145,148.76325)" /><path
         style="color:#000000;fill:none;stroke:#000000;stroke-width:0.245669;stroke-linecap:butt;stroke-linejoin:miter;stroke-dasharray:none;stroke-opacity:1"
         d="m -69.774849,-3.1115761 -0.350037,5.1193046"
         id="path10-45-7-2"
         sodipodi:nodetypes="cc"
         transform="matrix(0.26458333,0,0,0.26458333,86.966145,148.76325)" /><path
         d="M -71.539296,-8.9167"
         style="color:#000000;fill:none;stroke:#000000;stroke-width:0.245669;stroke-linecap:butt;stroke-linejoin:miter;stroke-dasharray:none;stroke-opacity:1"
         id="path1-99"
         transform="matrix(0.26458333,0,0,0.26458333,86.966145,148.76325)" /><path
         style="color:#000000;fill:none;stroke:#000000;stroke-width:1px;stroke-linecap:round;stroke-linejoin:round;stroke-opacity:1"
         d="m -64.207065,-11.7207 c 0,0 -3.56963,8.6342529 -5.461235,8.7257819 -1.769564,-0.09153 -2.684859,-8.6647619 -7.932533,-8.7868009 -4.484931,-0.09153 -7.139277,7.8104889 -7.139277,7.8104889"
         id="path13-2-9"
         sodipodi:nodetypes="cccc"
         transform="matrix(0.26458333,0,0,0.26458333,86.966145,148.76325)" /><path
         style="color:#000000;fill:none;stroke:#000000;stroke-width:1px;stroke-linecap:round;stroke-linejoin:round;stroke-opacity:1"
         d="m -83.850309,-0.50956381 c 0,0 2.715358,-8.87833099 6.346017,-8.87833099 3.4476,0.03051 4.301875,8.78680129 7.596926,8.87833049 3.630659,-0.06102 7.169787,-8.96985949 7.169787,-8.96985949"
         id="path13"
         sodipodi:nodetypes="cccc"
         transform="matrix(0.26458333,0,0,0.26458333,86.966145,148.76325)" /><path
         style="color:#000000;fill:none;stroke:#000000;stroke-width:1px;stroke-linecap:round;stroke-linejoin:round;stroke-opacity:1"
         d="m -82.892288,2.7646042 c 0,0 3.417081,-9.122409 5.308686,-9.213938 1.769564,0.09153 2.440781,8.1460968 7.688455,8.2681357 4.484931,0.091529 7.657943,-7.2918239 7.657943,-7.2918239"
         id="path13-2"
         sodipodi:nodetypes="cccc"
         transform="matrix(0.26458333,0,0,0.26458333,86.966145,148.76325)" /><path
         style="color:#000000;fill:none;stroke:#000000;stroke-width:0.245669;stroke-linecap:butt;stroke-linejoin:miter;stroke-dasharray:none;stroke-opacity:1"
         d="m -77.516955,-11.926368 0.01608,5.5769508 m -0.0034,-0.018006"
         id="path10-45-7"
         sodipodi:nodetypes="cc"
         transform="matrix(0.26458333,0,0,0.26458333,86.966145,148.76325)" /></g></g></svg>
