<?xml version="1.0" encoding="UTF-8" standalone="no"?>
<!-- Created with Inkscape (http://www.inkscape.org/) -->

<svg
   width="6mm"
   height="6mm"
   viewBox="0 0 6 6"
   version="1.1"
   id="svg1"
   xml:space="preserve"
   inkscape:version="1.3.2 (091e20e, 2023-11-25, custom)"
   sodipodi:docname="ICONS.svg"
   inkscape:export-filename="Icone\TakeScreenshot.svg"
   inkscape:export-xdpi="96"
   inkscape:export-ydpi="96"
   xmlns:inkscape="http://www.inkscape.org/namespaces/inkscape"
   xmlns:sodipodi="http://sodipodi.sourceforge.net/DTD/sodipodi-0.dtd"
   xmlns="http://www.w3.org/2000/svg"
   xmlns:svg="http://www.w3.org/2000/svg"><sodipodi:namedview
     id="namedview1"
     pagecolor="#505050"
     bordercolor="#eeeeee"
     borderopacity="1"
     inkscape:showpageshadow="0"
     inkscape:pageopacity="0"
     inkscape:pagecheckerboard="0"
     inkscape:deskcolor="#505050"
     inkscape:document-units="mm"
     inkscape:zoom="16.388212"
     inkscape:cx="292.03919"
     inkscape:cy="577.51878"
     inkscape:window-width="1920"
     inkscape:window-height="974"
     inkscape:window-x="-11"
     inkscape:window-y="-11"
     inkscape:window-maximized="1"
     inkscape:current-layer="layer1" /><defs
     id="defs1" /><g
     inkscape:label="Layer 1"
     inkscape:groupmode="layer"
     id="layer1"><g
       style="color:#000000;fill:none;stroke-width:1.5"
       id="g11"
       transform="matrix(0.26458333,0,0,0.26458333,-0.23827027,-0.22957472)"><path
         d="m 14.3632,5.65156 1.4799,-1.47999 c 0.7811,-0.78105 2.0474,-0.78105 2.8285,0 l 1.4142,1.41422 c 0.781,0.78104 0.781,2.04737 0,2.82842 l -1.48,1.47999 M 14.3632,5.65156 4.74749,15.2672 c -0.33207,0.3321 -0.5367,0.7704 -0.57802,1.2382 l -0.24209,2.7405 c -0.05477,0.62 0.4641,1.1389 1.08412,1.0841 l 2.74041,-0.2421 c 0.46781,-0.0413 0.90615,-0.246 1.23822,-0.578 L 18.6058,9.8942 M 14.3632,5.65156 18.6058,9.8942"
         stroke="#000000"
         stroke-width="1.5"
         stroke-linecap="round"
         stroke-linejoin="round"
         id="path1-39" /></g></g></svg>
