<?xml version="1.0" encoding="UTF-8" standalone="no"?>
<!-- Created with Inkscape (http://www.inkscape.org/) -->

<svg
   width="6mm"
   height="6mm"
   viewBox="0 0 6 6"
   version="1.1"
   id="svg1"
   xml:space="preserve"
   inkscape:version="1.3.2 (091e20e, 2023-11-25, custom)"
   sodipodi:docname="ICONS.svg"
   inkscape:export-filename="Icone\DrawLine.svg"
   inkscape:export-xdpi="96"
   inkscape:export-ydpi="96"
   xmlns:inkscape="http://www.inkscape.org/namespaces/inkscape"
   xmlns:sodipodi="http://sodipodi.sourceforge.net/DTD/sodipodi-0.dtd"
   xmlns="http://www.w3.org/2000/svg"
   xmlns:svg="http://www.w3.org/2000/svg"><sodipodi:namedview
     id="namedview1"
     pagecolor="#505050"
     bordercolor="#eeeeee"
     borderopacity="1"
     inkscape:showpageshadow="0"
     inkscape:pageopacity="0"
     inkscape:pagecheckerboard="0"
     inkscape:deskcolor="#505050"
     inkscape:document-units="mm"
     inkscape:zoom="16.388212"
     inkscape:cx="292.03919"
     inkscape:cy="577.51878"
     inkscape:window-width="1920"
     inkscape:window-height="974"
     inkscape:window-x="-11"
     inkscape:window-y="-11"
     inkscape:window-maximized="1"
     inkscape:current-layer="layer1" /><defs
     id="defs1" /><g
     inkscape:label="Layer 1"
     inkscape:groupmode="layer"
     id="layer1"><g
       style="color:#000000;fill:none;stroke-width:1.5"
       id="g12"
       transform="matrix(0.26458333,0,0,0.26458333,-0.13518646,-0.20940318)"><path
         d="M 5.16405,17 C 5.45344,15.9512 5.83338,14.9485 6.29589,14 M 11.5,7.79447 C 12.2822,7.22779 13.1177,6.72612 14,6.29589"
         stroke="#000000"
         stroke-width="1.5"
         stroke-linecap="round"
         stroke-linejoin="round"
         id="path1-26" /><path
         d="M 4.5,22 C 3.11929,22 2,20.8807 2,19.5 2,18.1193 3.11929,17 4.5,17 5.88071,17 7,18.1193 7,19.5 7,20.8807 5.88071,22 4.5,22 Z"
         stroke="#000000"
         stroke-width="1.5"
         stroke-linecap="round"
         stroke-linejoin="round"
         id="path2-00" /><path
         d="M 9.5,12 C 8.11929,12 7,10.8807 7,9.5 7,8.11929 8.11929,7 9.5,7 10.8807,7 12,8.11929 12,9.5 12,10.8807 10.8807,12 9.5,12 Z"
         stroke="#000000"
         stroke-width="1.5"
         stroke-linecap="round"
         stroke-linejoin="round"
         id="path3-63" /><path
         d="M 19.5,7 C 18.1193,7 17,5.88071 17,4.5 17,3.11929 18.1193,2 19.5,2 20.8807,2 22,3.11929 22,4.5 22,5.88071 20.8807,7 19.5,7 Z"
         stroke="#000000"
         stroke-width="1.5"
         stroke-linecap="round"
         stroke-linejoin="round"
         id="path4-2" /></g></g></svg>
