<?xml version="1.0" encoding="UTF-8" standalone="no"?>
<!-- Created with Inkscape (http://www.inkscape.org/) -->

<svg
   width="6mm"
   height="6mm"
   viewBox="0 0 6 6"
   version="1.1"
   id="svg1"
   xml:space="preserve"
   inkscape:version="1.3.2 (091e20e, 2023-11-25, custom)"
   sodipodi:docname="ICONS.svg"
   inkscape:export-filename="Icone\ClearSelection.svg"
   inkscape:export-xdpi="96"
   inkscape:export-ydpi="96"
   xmlns:inkscape="http://www.inkscape.org/namespaces/inkscape"
   xmlns:sodipodi="http://sodipodi.sourceforge.net/DTD/sodipodi-0.dtd"
   xmlns="http://www.w3.org/2000/svg"
   xmlns:svg="http://www.w3.org/2000/svg"><sodipodi:namedview
     id="namedview1"
     pagecolor="#505050"
     bordercolor="#eeeeee"
     borderopacity="1"
     inkscape:showpageshadow="0"
     inkscape:pageopacity="0"
     inkscape:pagecheckerboard="0"
     inkscape:deskcolor="#505050"
     inkscape:document-units="mm"
     inkscape:zoom="16.388212"
     inkscape:cx="292.03919"
     inkscape:cy="577.51878"
     inkscape:window-width="1920"
     inkscape:window-height="974"
     inkscape:window-x="-11"
     inkscape:window-y="-11"
     inkscape:window-maximized="1"
     inkscape:current-layer="layer1" /><defs
     id="defs1" /><g
     inkscape:label="Layer 1"
     inkscape:groupmode="layer"
     id="layer1"><g
       style="color:#000000;fill:none;stroke-width:1.5"
       id="g9"
       transform="matrix(0.26458333,0,0,0.26458333,-0.06315907,-0.11734981)"><path
         d="M 19.2616,17.0378 20.9383,4.46293 C 20.9746,4.19069 20.8214,3.92855 20.5664,3.82655 L 16,2 H 10.5 L 9.81818,3.5 5,2 3.20966,3.79034 C 3.07751,3.92249 3.01449,4.10866 3.03919,4.2939 l 1.69919,12.7439 c 0.16487,1.2366 0.89722,2.3254 1.98035,2.9443 l 0.31988,0.1828 c 3.07429,1.7568 6.84849,1.7568 9.92279,0 l 0.3199,-0.1828 c 1.0831,-0.6189 1.8155,-1.7077 1.9803,-2.9443 z"
         stroke="#000000"
         stroke-width="1.5"
         id="path1-1" /><path
         d="M 16,2 14,7"
         stroke="#000000"
         stroke-width="1.5"
         id="path2-1" /><path
         d="m 9,6.5 0.81818,-3"
         stroke="#000000"
         stroke-width="1.5"
         id="path3-4" /><path
         d="m 3,5.00002 c 2.57143,2.66666 15.4286,2.66662 18,0"
         stroke="#000000"
         stroke-width="1.5"
         id="path4" /></g></g></svg>
