<?xml version="1.0" encoding="UTF-8" standalone="no"?>
<!-- Created with Inkscape (http://www.inkscape.org/) -->

<svg
   width="6mm"
   height="6mm"
   viewBox="0 0 6 6"
   version="1.1"
   id="svg1"
   xml:space="preserve"
   inkscape:version="1.3.2 (091e20e, 2023-11-25, custom)"
   sodipodi:docname="ICONS.svg"
   inkscape:export-filename="Icone\SnapLine.svg"
   inkscape:export-xdpi="96"
   inkscape:export-ydpi="96"
   xmlns:inkscape="http://www.inkscape.org/namespaces/inkscape"
   xmlns:sodipodi="http://sodipodi.sourceforge.net/DTD/sodipodi-0.dtd"
   xmlns="http://www.w3.org/2000/svg"
   xmlns:svg="http://www.w3.org/2000/svg"><sodipodi:namedview
     id="namedview1"
     pagecolor="#505050"
     bordercolor="#eeeeee"
     borderopacity="1"
     inkscape:showpageshadow="0"
     inkscape:pageopacity="0"
     inkscape:pagecheckerboard="0"
     inkscape:deskcolor="#505050"
     inkscape:document-units="mm"
     inkscape:zoom="11.588216"
     inkscape:cx="12.555859"
     inkscape:cy="-3.7106661"
     inkscape:window-width="1289"
     inkscape:window-height="961"
     inkscape:window-x="618"
     inkscape:window-y="0"
     inkscape:window-maximized="0"
     inkscape:current-layer="layer1" /><defs
     id="defs1" /><g
     inkscape:label="Layer 1"
     inkscape:groupmode="layer"
     id="layer1"><g
       id="g1"
       transform="translate(-140.58618,-183.54277)"><g
         id="g22"
         color="#000000"
         stroke-width="1.5"
         fill="none"
         transform="matrix(-0.09936185,-0.13734499,0.13734499,-0.09936185,173.18259,213.88567)"><path
           d="m 230.356,-49.9544 v -4.4 c 0,-0.3314 -0.269,-0.6 -0.6,-0.6 h -6.8 c -0.332,0 -0.6,0.2686 -0.6,0.6 v 18.8 c 0,0.3314 0.268,0.6 0.6,0.6 h 6.8 c 0.331,0 0.6,-0.2686 0.6,-0.6 v -4.4 m 0,-10 h -3 m 3,0 v 5 m 0,0 h -3 m 3,0 v 5 m 0,0 h -3"
           id="path1-5"
           stroke="#000000"
           stroke-linecap="round"
           stroke-linejoin="round" /></g><g
         id="g12-3-7"
         color="#000000"
         stroke-width="1.5"
         fill="none"
         transform="matrix(0.264583,0,0,0.264583,140.428,183.29)"><path
           d="M 5.16405,17 C 5.45344,15.9512 7.1278,12.446 7.59031,11.4975 M 11.5,7.79447 c 0.7822,-0.56668 4.5517,-2.19018 5.434,-2.62041"
           id="path1-26-5-8"
           stroke="#000000"
           stroke-linecap="round"
           stroke-linejoin="round" /><path
           d="M 4.5,22 C 3.11929,22 2,20.8807 2,19.5 2,18.1193 3.11929,17 4.5,17 5.88071,17 7,18.1193 7,19.5 7,20.8807 5.88071,22 4.5,22 Z"
           id="path2-00-7-9"
           stroke="#000000"
           stroke-linecap="round"
           stroke-linejoin="round" /><path
           d="M 9.5,12 C 8.11929,12 7,10.8807 7,9.5 7,8.11929 8.11929,7 9.5,7 10.8807,7 12,8.11929 12,9.5 12,10.8807 10.8807,12 9.5,12 Z"
           id="path3-63-4-9"
           stroke="#000000"
           stroke-linecap="round"
           stroke-linejoin="round" /><path
           d="M 19.5,7 C 18.1193,7 17,5.88071 17,4.5 17,3.11929 18.1193,2 19.5,2 20.8807,2 22,3.11929 22,4.5 22,5.88071 20.8807,7 19.5,7 Z"
           id="path4-2-0-0"
           stroke="#000000"
           stroke-linecap="round"
           stroke-linejoin="round" /></g></g></g></svg>
