<?xml version="1.0" encoding="UTF-8" standalone="no"?>
<!-- Created with Inkscape (http://www.inkscape.org/) -->

<svg
   width="6mm"
   height="6mm"
   viewBox="0 0 6 6"
   version="1.1"
   id="svg1"
   xml:space="preserve"
   inkscape:version="1.3.2 (091e20e, 2023-11-25, custom)"
   sodipodi:docname="ICONS.svg"
   xmlns:inkscape="http://www.inkscape.org/namespaces/inkscape"
   xmlns:sodipodi="http://sodipodi.sourceforge.net/DTD/sodipodi-0.dtd"
   xmlns="http://www.w3.org/2000/svg"
   xmlns:svg="http://www.w3.org/2000/svg"><sodipodi:namedview
     id="namedview1"
     pagecolor="#505050"
     bordercolor="#eeeeee"
     borderopacity="1"
     inkscape:showpageshadow="0"
     inkscape:pageopacity="0"
     inkscape:pagecheckerboard="0"
     inkscape:deskcolor="#505050"
     inkscape:document-units="mm"
     inkscape:zoom="16.388212"
     inkscape:cx="292.03919"
     inkscape:cy="577.51878"
     inkscape:window-width="1920"
     inkscape:window-height="974"
     inkscape:window-x="-11"
     inkscape:window-y="-11"
     inkscape:window-maximized="1"
     inkscape:current-layer="layer1" /><defs
     id="defs1" /><g
     inkscape:label="Layer 1"
     inkscape:groupmode="layer"
     id="layer1"><path
       d="M 0.37449782,1.8919441 2.9493428,0.60452412 c 0.04469,-0.0223 0.09729,-0.0223 0.141976,0 l 2.574845,1.28741998"
       stroke="#000000"
       stroke-width="0.396875"
       stroke-linecap="round"
       stroke-linejoin="round"
       id="path1-2"
       style="color:#000000;fill:none" /><path
       d="m 5.1369978,2.6856941 v 2.1166598 c 0,0.29226 -0.236908,0.52917 -0.529167,0.52917 h -3.175 c -0.292251,0 -0.52916698,-0.23691 -0.52916698,-0.52917 V 2.6856941"
       stroke="#000000"
       stroke-width="0.396875"
       stroke-linecap="round"
       stroke-linejoin="round"
       id="path2-2"
       style="color:#000000;fill:none" /><g
       style="color:#000000;fill:none;stroke-width:1.5"
       id="g4"
       transform="matrix(0.15174359,0,0,0.15174359,1.2219008,1.4110541)"><path
         d="M 3,19 V 5 C 3,3.89543 3.89543,3 5,3 h 11.1716 c 0.5304,0 1.0391,0.21071 1.4142,0.58579 l 2.8284,2.82842 C 20.7893,6.78929 21,7.29799 21,7.82843 V 19 c 0,1.1046 -0.8954,2 -2,2 H 5 C 3.89543,21 3,20.1046 3,19 Z"
         stroke="#000000"
         stroke-width="1.5"
         id="path1-3" /><path
         d="m 8.6,9 h 6.8 C 15.7314,9 16,8.73137 16,8.4 V 3.6 C 16,3.26863 15.7314,3 15.4,3 H 8.6 C 8.26863,3 8,3.26863 8,3.6 V 8.4 C 8,8.73137 8.26863,9 8.6,9 Z"
         stroke="#000000"
         stroke-width="1.5"
         id="path2" /><path
         d="M 6,13.6 V 21 H 18 V 13.6 C 18,13.2686 17.7314,13 17.4,13 H 6.6 C 6.26863,13 6,13.2686 6,13.6 Z"
         stroke="#000000"
         stroke-width="1.5"
         id="path3" /></g></g></svg>
