<?xml version="1.0" encoding="UTF-8" standalone="no"?>
<!-- Created with Inkscape (http://www.inkscape.org/) -->

<svg
   width="6mm"
   height="6mm"
   viewBox="0 0 6 6"
   version="1.1"
   id="svg1"
   xml:space="preserve"
   inkscape:version="1.3.2 (091e20e, 2023-11-25, custom)"
   sodipodi:docname="ICONS.svg"
   inkscape:export-filename="Icone\CopySimilar.svg"
   inkscape:export-xdpi="96"
   inkscape:export-ydpi="96"
   xmlns:inkscape="http://www.inkscape.org/namespaces/inkscape"
   xmlns:sodipodi="http://sodipodi.sourceforge.net/DTD/sodipodi-0.dtd"
   xmlns="http://www.w3.org/2000/svg"
   xmlns:svg="http://www.w3.org/2000/svg"><sodipodi:namedview
     id="namedview1"
     pagecolor="#505050"
     bordercolor="#eeeeee"
     borderopacity="1"
     inkscape:showpageshadow="0"
     inkscape:pageopacity="0"
     inkscape:pagecheckerboard="0"
     inkscape:deskcolor="#505050"
     inkscape:document-units="mm"
     inkscape:zoom="11.588216"
     inkscape:cx="12.555859"
     inkscape:cy="-3.7106661"
     inkscape:window-width="1289"
     inkscape:window-height="961"
     inkscape:window-x="618"
     inkscape:window-y="0"
     inkscape:window-maximized="0"
     inkscape:current-layer="layer1" /><defs
     id="defs1" /><g
     inkscape:label="Layer 1"
     inkscape:groupmode="layer"
     id="layer1"><g
       id="g27"
       transform="translate(-52.87915,-143.29427)"><path
         d="m 57.966498,146.60318 v -2.25671"
         stroke="#000000"
         stroke-width="1.5"
         stroke-linecap="round"
         stroke-linejoin="round"
         id="path3-2-6"
         style="color:#000000;fill:none;stroke-width:0.386357" /><path
         d="m 53.453192,148.36149 v -2.38125"
         stroke="#000000"
         stroke-width="1.5"
         stroke-linecap="round"
         stroke-linejoin="round"
         id="path3-2-0"
         style="color:#000000;fill:none;stroke-width:0.396875" /><path
         d="m 53.452298,145.91828 4.50813,-1.57759"
         stroke="#000000"
         stroke-width="1.5"
         stroke-linecap="round"
         stroke-linejoin="round"
         id="path3-2-0-7"
         style="color:#000000;fill:none;stroke-width:0.396875"
         sodipodi:nodetypes="cc" /><path
         style="fill:none;stroke:#000000;stroke-width:0.065;stroke-linecap:round;stroke-linejoin:round;stroke-dasharray:none;stroke-opacity:1"
         d="m 53.957968,147.35383 c 0.20856,-0.443 0.509402,-0.44856 0.958949,-0.42845 0.163661,-0.0226 0.244712,-0.14028 0.348188,-0.25116 0.728909,-0.87817 1.011528,0.0803 1.82371,-0.59937 0.427971,-0.29504 0.527689,-0.13282 0.249766,0.14478 -0.440842,0.33015 -0.6843,0.43296 -1.194735,0.39617 -0.290357,-0.0223 -0.466678,0.0846 -0.634368,0.31101 -0.223694,0.3144 -0.473584,0.29322 -0.760063,0.37015 -0.123816,0.0332 -0.273015,0.0927 -0.377423,0.21168 -0.03996,0.0485 -0.15167,0.20374 -0.15167,0.20374"
         id="path26"
         sodipodi:nodetypes="cscccscscc" /><path
         style="fill:none;stroke:#000000;stroke-width:0.065;stroke-linecap:round;stroke-linejoin:round;stroke-dasharray:none;stroke-opacity:1"
         d="m 53.895178,146.91432 c 0.464613,-0.44218 0.986892,-0.69804 1.609665,-0.83623 0.331065,-0.0628 0.465205,-0.0171 0.779146,-0.0599 0.565203,-0.0977 0.687092,-0.13198 1.247202,-0.2911"
         id="path27"
         sodipodi:nodetypes="cccc" /><path
         style="fill:none;stroke:#000000;stroke-width:0.065;stroke-linecap:round;stroke-linejoin:round;stroke-dasharray:none;stroke-opacity:1"
         d="m 53.775484,146.59901 c 0.464613,-0.44218 0.986892,-0.69804 1.609665,-0.83623 0.331065,-0.0628 0.465205,-0.0171 0.779146,-0.0599 0.565203,-0.0977 0.687092,-0.13198 1.247202,-0.2911"
         id="path27-0"
         sodipodi:nodetypes="cccc" /></g></g></svg>
