<?xml version="1.0" encoding="UTF-8" standalone="no"?>
<!-- Created with Inkscape (http://www.inkscape.org/) -->

<svg
   width="6mm"
   height="6mm"
   viewBox="0 0 6 6"
   version="1.1"
   id="svg1"
   xml:space="preserve"
   inkscape:version="1.3.2 (091e20e, 2023-11-25, custom)"
   sodipodi:docname="ICONS.svg"
   inkscape:export-filename="Icone\ResampleNumber.svg"
   inkscape:export-xdpi="96"
   inkscape:export-ydpi="96"
   xmlns:inkscape="http://www.inkscape.org/namespaces/inkscape"
   xmlns:sodipodi="http://sodipodi.sourceforge.net/DTD/sodipodi-0.dtd"
   xmlns="http://www.w3.org/2000/svg"
   xmlns:svg="http://www.w3.org/2000/svg"><sodipodi:namedview
     id="namedview1"
     pagecolor="#505050"
     bordercolor="#eeeeee"
     borderopacity="1"
     inkscape:showpageshadow="0"
     inkscape:pageopacity="0"
     inkscape:pagecheckerboard="0"
     inkscape:deskcolor="#505050"
     inkscape:document-units="mm"
     inkscape:zoom="11.588216"
     inkscape:cx="12.555859"
     inkscape:cy="-3.7106661"
     inkscape:window-width="1289"
     inkscape:window-height="961"
     inkscape:window-x="618"
     inkscape:window-y="0"
     inkscape:window-maximized="0"
     inkscape:current-layer="layer1" /><defs
     id="defs1" /><g
     inkscape:label="Layer 1"
     inkscape:groupmode="layer"
     id="layer1"><g
       id="g37"
       transform="matrix(0.97393167,0,0,0.97393167,-14.989556,6.9772997)"><g
         id="g36"
         transform="matrix(0.96574901,0,0,0.96574901,-0.85508104,-0.28381238)"><path
           style="color:#000000;fill:none;stroke:#000000;stroke-width:0.265;stroke-linecap:round;stroke-linejoin:round;stroke-dasharray:none;stroke-opacity:1;paint-order:stroke markers fill"
           d="m 17.315284,-2.7313312 c 0,0 0.657039,-0.76889 1.491836,-0.7697 0.839764,0.0187 1.49951,0.68315 2.471579,0.71457 1.032353,0.0201 1.737062,-1.07472 1.737062,-1.07472"
           id="path9-7"
           sodipodi:nodetypes="cccc" /></g><path
         d="m 17.874815,-5.1760249 1.26058,1.31144 m 0,0 0.0117,-0.59354 m -0.0117,0.59354 -0.59354,-0.0117"
         stroke="#000000"
         stroke-width="0.666449"
         stroke-linecap="round"
         stroke-linejoin="round"
         id="path2-23-4-6"
         style="color:#000000;fill:#000000;fill-opacity:1;stroke:#000000;stroke-width:0.172;stroke-dasharray:none;stroke-opacity:1" /><path
         style="color:#000000;fill:none;stroke:#000000;stroke-width:0.23768;stroke-linecap:round;stroke-linejoin:round;stroke-dasharray:none;stroke-opacity:1;paint-order:stroke markers fill"
         d="m 15.60244,-5.2508574 c 0,0 0.126035,-0.019823 0.418973,-0.2099027 0.114921,-0.074623 0.130578,-0.2442097 0.288901,-0.3450845 0.07324,-0.046639 0.234266,0.015157 0.340491,-0.00628 0.126392,-0.025294 0.199314,-0.1292081 0.289671,-0.1292978 0.103998,0.0027 0.248355,-0.042244 0.347356,-0.020898 0.11559,0.024935 0.142568,0.1115213 0.252319,0.1568509 0.119961,0.04951 0.222743,0.012737 0.349767,0.068076 0.06471,0.028162 0.09002,0.1077453 0.157749,0.139684 0.06418,0.030314 0.174727,0.010942 0.24388,0.038656 0.105874,0.042423 0.162046,0.1235576 0.267647,0.1642412 0.07261,0.027984 0.158785,-0.00898 0.242322,0.0054 0.121201,0.02045 0.2092,0.013455 0.322455,0.017041 0.08852,0.00182 0.220449,0.1222931 0.303311,0.1074671 0.117977,-0.021077 0.234739,-0.1506712 0.339279,-0.1989875 0.07981,-0.036863 0.188662,0.013724 0.25969,-0.030584 0.07794,-0.048612 0.08035,-0.1646809 0.145306,-0.2218228 0.07378,-0.064937 0.22743,-0.075878 0.290078,-0.1369214 0.05305,-0.051662 0.05473,-0.1760804 0.08877,-0.2257601 0.09648,-0.1408323 0.164838,-0.1856415 0.164838,-0.1856415"
         id="path9-7-4"
         sodipodi:nodetypes="cssscssssssscssssssc" /></g></g></svg>
