<?xml version="1.0" encoding="UTF-8" standalone="no"?>
<!-- Created with Inkscape (http://www.inkscape.org/) -->

<svg
   width="6mm"
   height="6mm"
   viewBox="0 0 6 6"
   version="1.1"
   id="svg1"
   xml:space="preserve"
   inkscape:version="1.3.2 (091e20e, 2023-11-25, custom)"
   sodipodi:docname="ICONS.svg"
   inkscape:export-filename="Icone\MergeLines.svg"
   inkscape:export-xdpi="96"
   inkscape:export-ydpi="96"
   xmlns:inkscape="http://www.inkscape.org/namespaces/inkscape"
   xmlns:sodipodi="http://sodipodi.sourceforge.net/DTD/sodipodi-0.dtd"
   xmlns="http://www.w3.org/2000/svg"
   xmlns:svg="http://www.w3.org/2000/svg"><sodipodi:namedview
     id="namedview1"
     pagecolor="#505050"
     bordercolor="#eeeeee"
     borderopacity="1"
     inkscape:showpageshadow="0"
     inkscape:pageopacity="0"
     inkscape:pagecheckerboard="0"
     inkscape:deskcolor="#505050"
     inkscape:document-units="mm"
     inkscape:zoom="11.588216"
     inkscape:cx="12.555859"
     inkscape:cy="-3.7106661"
     inkscape:window-width="1289"
     inkscape:window-height="961"
     inkscape:window-x="618"
     inkscape:window-y="0"
     inkscape:window-maximized="0"
     inkscape:current-layer="layer1" /><defs
     id="defs1" /><g
     inkscape:label="Layer 1"
     inkscape:groupmode="layer"
     id="layer1"><g
       id="g33"
       transform="translate(-27.033209,-9.9091325)"><path
         style="fill:none;stroke:#000000;stroke-width:0.42;stroke-linecap:round;stroke-linejoin:miter;stroke-dasharray:0.839999, 4.62;stroke-dashoffset:0;stroke-opacity:1"
         d="m 27.855422,15.152193 4.46344,-4.37799"
         id="path19-6"
         sodipodi:nodetypes="cc" /><g
         style="color:#000000;fill:none;stroke-width:1.5"
         id="g21"
         transform="matrix(-0.21741321,0.22785957,-0.22785957,-0.21741321,35.281542,13.171773)"><path
           d="m 5.1644652,13.350021 c -0.7245828,0 -1.3119725,-0.58737 -1.3119725,-1.311973 0,-0.724602 0.5873897,-1.311973 1.3119725,-1.311973 0.7245825,0 1.3119722,0.587371 1.3119722,1.311973 0,0.724603 -0.5873897,1.311973 -1.3119722,1.311973 z"
           stroke="#000000"
           stroke-width="0.983979"
           stroke-linecap="round"
           stroke-linejoin="round"
           id="path1-22" /><path
           d="m 16.355262,13.940517 c -0.724583,0 -1.311972,-0.587369 -1.311972,-1.311974 0,-0.724601 0.587389,-1.311972 1.311972,-1.311972 0.724583,0 1.311973,0.587371 1.311973,1.311972 0,0.724605 -0.58739,1.311974 -1.311973,1.311974 z"
           stroke="#000000"
           stroke-width="1.5"
           stroke-linecap="round"
           stroke-linejoin="round"
           id="path1-22-3"
           style="color:#000000;fill:none;stroke-width:0.983979" /><path
           d="m 7.4177178,12.176897 5.7704672,0.249595 m 0,0 -1.274048,-1.389244 m 1.274048,1.389244 -1.389245,1.274048"
           stroke="#000000"
           stroke-width="0.666449"
           stroke-linecap="round"
           stroke-linejoin="round"
           id="path2-23" /></g></g></g></svg>
