<?xml version="1.0" encoding="UTF-8" standalone="no"?>
<!-- Created with Inkscape (http://www.inkscape.org/) -->

<svg
   width="6mm"
   height="6mm"
   viewBox="0 0 6 6"
   version="1.1"
   id="svg1"
   xml:space="preserve"
   inkscape:version="1.3.2 (091e20e, 2023-11-25, custom)"
   sodipodi:docname="ICONS.svg"
   inkscape:export-filename="Icone\RemoveEntity.svg"
   inkscape:export-xdpi="96"
   inkscape:export-ydpi="96"
   xmlns:inkscape="http://www.inkscape.org/namespaces/inkscape"
   xmlns:sodipodi="http://sodipodi.sourceforge.net/DTD/sodipodi-0.dtd"
   xmlns="http://www.w3.org/2000/svg"
   xmlns:svg="http://www.w3.org/2000/svg"><sodipodi:namedview
     id="namedview1"
     pagecolor="#505050"
     bordercolor="#eeeeee"
     borderopacity="1"
     inkscape:showpageshadow="0"
     inkscape:pageopacity="0"
     inkscape:pagecheckerboard="0"
     inkscape:deskcolor="#505050"
     inkscape:document-units="mm"
     inkscape:zoom="16.388212"
     inkscape:cx="292.03919"
     inkscape:cy="577.51878"
     inkscape:window-width="1920"
     inkscape:window-height="974"
     inkscape:window-x="-11"
     inkscape:window-y="-11"
     inkscape:window-maximized="1"
     inkscape:current-layer="layer1" /><defs
     id="defs1" /><g
     inkscape:label="Layer 1"
     inkscape:groupmode="layer"
     id="layer1"><g
       style="color:#000000;fill:none;stroke-width:1.5"
       id="g10"
       transform="matrix(0.26458333,0,0,0.26458333,-0.29138844,-0.3550984)"><path
         d="m 10,21.4 v -7.0063 c 0,-0.3314 0.2686,-0.6 0.6,-0.6 h 1.1728 c 0.204,0 0.3939,-0.1036 0.5044,-0.2751 L 13.7228,11.275 C 13.8333,11.1036 14.0232,11 14.2272,11 h 3.5456 c 0.204,0 0.3939,0.1036 0.5044,0.275 l 1.4456,2.2436 c 0.1105,0.1715 0.3004,0.2751 0.5044,0.2751 H 21.4 c 0.3314,0 0.6,0.2686 0.6,0.6 V 21.4 C 22,21.7314 21.7314,22 21.4,22 H 10.6 C 10.2686,22 10,21.7314 10,21.4 Z"
         stroke="#000000"
         stroke-width="1.5"
         stroke-linecap="round"
         stroke-linejoin="round"
         id="path1-27" /><path
         d="m 16,19 c 1.1046,0 2,-0.8954 2,-2 0,-1.1046 -0.8954,-2 -2,-2 -1.1046,0 -2,0.8954 -2,2 0,1.1046 0.8954,2 2,2 z"
         stroke="#000000"
         stroke-width="1.5"
         stroke-linecap="round"
         stroke-linejoin="round"
         id="path2-9" /><path
         d="m 3,18 v 3 h 2.5"
         stroke="#000000"
         stroke-width="1.5"
         stroke-linecap="round"
         stroke-linejoin="round"
         id="path3-6" /><path
         d="m 3,9.5 v 5"
         stroke="#000000"
         stroke-width="1.5"
         stroke-linecap="round"
         stroke-linejoin="round"
         id="path4-5" /><path
         d="M 3,6 V 3 h 3"
         stroke="#000000"
         stroke-width="1.5"
         stroke-linecap="round"
         stroke-linejoin="round"
         id="path5" /><path
         d="m 9.5,3 h 5"
         stroke="#000000"
         stroke-width="1.5"
         stroke-linecap="round"
         stroke-linejoin="round"
         id="path6" /><path
         d="m 18,3 h 3 v 2.5"
         stroke="#000000"
         stroke-width="1.5"
         stroke-linecap="round"
         stroke-linejoin="round"
         id="path7" /><path
         d="M 21,10 V 8.5"
         stroke="#000000"
         stroke-width="1.5"
         stroke-linecap="round"
         stroke-linejoin="round"
         id="path8" /></g></g></svg>
