<?xml version="1.0" encoding="UTF-8" standalone="no"?>
<!-- Created with Inkscape (http://www.inkscape.org/) -->

<svg
   width="6mm"
   height="6mm"
   viewBox="0 0 6 6"
   version="1.1"
   id="svg1"
   xml:space="preserve"
   inkscape:version="1.3.2 (091e20e, 2023-11-25, custom)"
   sodipodi:docname="ICONS.svg"
   inkscape:export-filename="Icone\HomeView.svg"
   inkscape:export-xdpi="96"
   inkscape:export-ydpi="96"
   xmlns:inkscape="http://www.inkscape.org/namespaces/inkscape"
   xmlns:sodipodi="http://sodipodi.sourceforge.net/DTD/sodipodi-0.dtd"
   xmlns="http://www.w3.org/2000/svg"
   xmlns:svg="http://www.w3.org/2000/svg"><sodipodi:namedview
     id="namedview1"
     pagecolor="#505050"
     bordercolor="#eeeeee"
     borderopacity="1"
     inkscape:showpageshadow="0"
     inkscape:pageopacity="0"
     inkscape:pagecheckerboard="0"
     inkscape:deskcolor="#505050"
     inkscape:document-units="mm"
     inkscape:zoom="16.388212"
     inkscape:cx="292.03919"
     inkscape:cy="577.51878"
     inkscape:window-width="1920"
     inkscape:window-height="974"
     inkscape:window-x="-11"
     inkscape:window-y="-11"
     inkscape:window-maximized="1"
     inkscape:current-layer="layer1" /><defs
     id="defs1" /><g
     inkscape:label="Layer 1"
     inkscape:groupmode="layer"
     id="layer1"><g
       style="color:#000000;fill:none;stroke-width:1.5"
       id="g5"
       transform="matrix(0.26458333,0,0,0.26458333,-0.22234271,-0.29113151)"><path
         d="M 3,13 C 6.6,5 17.4,5 21,13"
         stroke="#000000"
         stroke-width="1.5"
         stroke-linecap="round"
         stroke-linejoin="round"
         id="path1" /><path
         d="m 12,17 c -1.6569,0 -3,-1.3431 -3,-3 0,-1.6569 1.3431,-3 3,-3 1.6569,0 3,1.3431 3,3 0,1.6569 -1.3431,3 -3,3 z"
         stroke="#000000"
         stroke-width="1.5"
         stroke-linecap="round"
         stroke-linejoin="round"
         id="path2-0" /></g><g
       style="color:#000000;fill:none;stroke-width:1.5"
       id="g6"
       transform="matrix(0.11933333,0,0,0.11933333,1.6370673,2.1191585)"><path
         d="m 8,11 h 3 m 3,0 h -3 m 0,0 V 8 m 0,3 v 3"
         stroke="#000000"
         stroke-width="1.5"
         stroke-linecap="round"
         stroke-linejoin="round"
         id="path1-0" /><path
         d="m 17,17 4,4"
         stroke="#000000"
         stroke-width="1.5"
         stroke-linecap="round"
         stroke-linejoin="round"
         id="path2-8" /><path
         d="m 3,11 c 0,4.4183 3.58172,8 8,8 2.213,0 4.2161,-0.8985 5.6644,-2.3507 C 18.1077,15.2022 19,13.2053 19,11 19,6.58172 15.4183,3 11,3 6.58172,3 3,6.58172 3,11 Z"
         stroke="#000000"
         stroke-width="1.5"
         stroke-linecap="round"
         stroke-linejoin="round"
         id="path3-1" /></g></g></svg>
